<mxfile host="Electron" modified="2023-06-05T21:55:31.249Z" agent="Mozilla/5.0 (Windows NT 10.0; Win64; x64) AppleWebKit/537.36 (KHTML, like Gecko) draw.io/21.2.8 Chrome/112.0.5615.165 Electron/24.2.0 Safari/537.36" etag="dXnztS2-LtTn-OjfXh89" version="21.2.8" type="device">
  <diagram name="Page-1" id="bo2Qcpqp_9Sh-g5zROB6">
    <mxGraphModel dx="1669" dy="482" grid="1" gridSize="10" guides="1" tooltips="1" connect="1" arrows="1" fold="1" page="1" pageScale="1" pageWidth="850" pageHeight="1100" math="0" shadow="0">
      <root>
        <mxCell id="0" />
        <mxCell id="1" parent="0" />
        <mxCell id="gnfQH_sGRCpGD1FleYyg-1" value="Calculate prefix sum of latest min lex str" style="text;html=1;align=left;verticalAlign=middle;resizable=0;points=[];autosize=1;strokeColor=none;fillColor=none;" vertex="1" parent="1">
          <mxGeometry x="81.5" y="410" width="240" height="30" as="geometry" />
        </mxCell>
        <mxCell id="gnfQH_sGRCpGD1FleYyg-2" value="" style="shape=image;verticalLabelPosition=bottom;labelBackgroundColor=default;verticalAlign=top;aspect=fixed;imageAspect=0;image=data:image/png,iVBORw0KGgoAAAANSUhEUgAAARUAAAB9CAYAAACMPvdhAAAFg0lEQVR4nO3dUZLaOhCF4fatrMbt5UTOckZsx5rlWGyn7wM2NmAIkzRB8vxfFQ8xFq2qSAdZqGoaMzMBACf/vbsDAPaFUAHgilAB4IpQAeCKUAHgilAB4IpQAeCKUAHgilAB4IpQAeCKUAHgilAB4IpQAeCKUAHgilAB4IpQAeCKUAHgilAB4IpQAeCKUAHgilAB4IpQAeCKUAHgilAB4IpQAeCKUAHgilAB4IpQAeCKUAHgilAB4GqHoZKkbxppmk4OeU+1gDrsMFQAvBOhAsAVoQLAFaECwFX5oZKzpEMvXddI0yyvruslPbM5mpP0Xbe07Trp7zWsqRZQKivZGE1FTOaXqqnq8m9Ri+N1o8HC9F6IYWmvevFZet2w+FpAHcoPFVULw/UMGy3qNAHDcPXePNHnCRtt3XqMuj1xi68F1KHsUHlkCJsT+WKih8Fuv/CXiXuzgii6FlCH8vdU7mlVVEQkZzlu3qASP8LpnqvrP8Ppak6f8tT2RVG1gLL9eHcHnpVzkuNnWm1iHp+bpBu0bUUetK61FlCC4kMlp15+9ek1E21aDcwrjN3UAt6o7Mef1Es3TTyNg4ynPaDTa4wbjxtfpCrtHmsBb1T0SiWlJCIiGkcZP/ymWj5OuxVte57Ae6gFlKDglUqW41/tVGaJh7RxPckhnh46VNvzvfXUAspWcKiotNM8zPlq8zIfpOvi7/cjUi9Nd1jdlyX1vZymf5CP8yqhslpAyd75e/ZvrU+eqloIwcJ88vR8AjXY5TGx+exIsBiXU6qXJ1bFbs6WFV8LqEPZoWJmNg7LhJtOp2oYbFxN6HsTfTCzcYgWVFYTPtjNQdYqagF1aMzM/smSCMC3UPCeCoAaESoAXBV9TmVvmqa5+x5PodgL9lQKQNhgTwiVgq3Dhv8m1ILHn4IRJKgRoeLg0eOLCOGA74VQcUBoAAt+UgbgilAB4IpQAeCKUAHgilAB4IpQAeCKUAHgilAB4IpQAeCKUAHgilAB4IpQAeCKUAHgilAB4IpQAeCKUAHgilAB4GrnoZKkbxppmk4OL/+r53ut9SdK7x9eaeehAuBfI1QAuCJUALgiVAC4qitUcpZ06KXrGmma5dV1vaRnNgRzkr7rlrZdJ/29htSqp38oi9VijKYiJvNL1VR1+beoxfG60WBhei/EsLRXvfgsvW5IrXr6h+LUFSqqFoabUW9Rp0EXhqv35sE9D9Jo69Zj1O3BSq16+ofi1BMqjwxhc/BeDO4w2O2X3DJYb741qVV///AWde2p3NOqqIhIznLcvEElfoTTPVfXf4bT1Zw+5alH9m9bq8L+4S2q/FvKOSc5fqbVxt3xuYG5QdtW5EFratXTP5ShqlDJqZdffXrN4Jq+AedvVWqtPqLw/qEs9Tz+pF66abBpHGQ87QedXmPcWGJ/kaq01LpVev9QnGpWKiklERHROMr44Te88nF6Qm/b86Cl1qL0/qE8laxUshz/ancuSzykjetJDvG00FZtz/dSa/n8svuHIr3nR6evG8KdnygvDkwFuzzF8Oi8xLh85lU7atXTP5SnmlC5GFiqFkKwMJ+2PJ+6vDe4g8W4nMy8PKUpdnOeilr19A/FqSdUzMzGYRlk04lMDYONq0F8b3APZjYO0YLKapAHuzm8Sa3bSVt6/1CUxszsq49MAHBPJRu1AGpBqABwRagAcEWoAHBVzYla/HtN0zx9L/v9mBEquIugwJ8gVL6R9cqDwMCrECrfyDpIrh9tCBl4IVS+KUIEr8KvPwBcESoAXBEqAFwRKgBcESoAXBEqAFwRKgBcESoAXBEqAFwRKgBcESoAXBEqAFwRKgBcESoAXBEqAFwRKgBcESoAXBEqAFwRKgBcESoAXBEqAFwRKgBc/Q8n6LSUUYztkQAAAABJRU5ErkJggg==;" vertex="1" parent="1">
          <mxGeometry x="81.5" y="270" width="277" height="125" as="geometry" />
        </mxCell>
        <mxCell id="gnfQH_sGRCpGD1FleYyg-4" value="check right to left, include if new is &amp;lt;= current" style="text;html=1;align=left;verticalAlign=middle;resizable=0;points=[];autosize=1;strokeColor=none;fillColor=none;" vertex="1" parent="1">
          <mxGeometry x="81.5" y="450" width="260" height="30" as="geometry" />
        </mxCell>
        <mxCell id="gnfQH_sGRCpGD1FleYyg-5" value="&lt;div style=&quot;text-align: left;&quot;&gt;&lt;span style=&quot;background-color: initial;&quot;&gt;To Do:&lt;/span&gt;&lt;/div&gt;&lt;div style=&quot;text-align: left;&quot;&gt;&lt;span style=&quot;background-color: initial;&quot;&gt;&lt;br&gt;&lt;/span&gt;&lt;/div&gt;&lt;div style=&quot;text-align: left;&quot;&gt;Make an algorithm that finds the min lex from left to right&lt;/div&gt;&lt;div style=&quot;text-align: left;&quot;&gt;&amp;nbsp;&amp;nbsp;&lt;/div&gt;&lt;div style=&quot;text-align: left;&quot;&gt;Algo 1: 1 char comparison&amp;nbsp;&lt;/div&gt;&lt;div style=&quot;text-align: left;&quot;&gt;&amp;nbsp; - has conterexamples&lt;/div&gt;&lt;div style=&quot;text-align: left;&quot;&gt;&lt;br&gt;&lt;/div&gt;&lt;div style=&quot;text-align: left;&quot;&gt;Algo 2: Backtrack adjacent to current char&lt;/div&gt;&lt;div style=&quot;text-align: left;&quot;&gt;&amp;nbsp; - has no counterexamples yet&lt;/div&gt;&lt;div style=&quot;text-align: left;&quot;&gt;&lt;br&gt;&lt;/div&gt;&lt;div style=&quot;text-align: left;&quot;&gt;Algo 3: Whole reverse&lt;/div&gt;" style="text;html=1;align=center;verticalAlign=middle;resizable=0;points=[];autosize=1;strokeColor=none;fillColor=none;" vertex="1" parent="1">
          <mxGeometry x="21.5" y="465" width="320" height="170" as="geometry" />
        </mxCell>
        <mxCell id="gnfQH_sGRCpGD1FleYyg-6" value="Questions&lt;br&gt;- How to store current backtrack&lt;br&gt;-&amp;nbsp;" style="text;html=1;align=left;verticalAlign=middle;resizable=0;points=[];autosize=1;strokeColor=none;fillColor=none;" vertex="1" parent="1">
          <mxGeometry x="21.5" y="750" width="190" height="60" as="geometry" />
        </mxCell>
        <mxCell id="gnfQH_sGRCpGD1FleYyg-7" value="Implementation&lt;br&gt;- if new min found - replace leftmost&lt;br&gt;-&amp;nbsp;" style="text;html=1;align=left;verticalAlign=middle;resizable=0;points=[];autosize=1;strokeColor=none;fillColor=none;" vertex="1" parent="1">
          <mxGeometry x="21.5" y="680" width="210" height="60" as="geometry" />
        </mxCell>
        <mxCell id="gnfQH_sGRCpGD1FleYyg-8" value="Algo 2" style="text;html=1;align=center;verticalAlign=middle;resizable=0;points=[];autosize=1;strokeColor=none;fillColor=none;" vertex="1" parent="1">
          <mxGeometry x="-20" y="650" width="60" height="30" as="geometry" />
        </mxCell>
        <mxCell id="gnfQH_sGRCpGD1FleYyg-9" value="Algo 3" style="text;html=1;align=center;verticalAlign=middle;resizable=0;points=[];autosize=1;strokeColor=none;fillColor=none;" vertex="1" parent="1">
          <mxGeometry x="-38.5" y="820" width="60" height="30" as="geometry" />
        </mxCell>
        <mxCell id="gnfQH_sGRCpGD1FleYyg-10" value="Implementation&lt;br&gt;&lt;div style=&quot;&quot;&gt;&lt;span style=&quot;background-color: initial;&quot;&gt;- From right to left:&lt;/span&gt;&lt;/div&gt;&lt;div style=&quot;&quot;&gt;&lt;span style=&quot;background-color: initial;&quot;&gt;&amp;nbsp; &amp;nbsp;- add current char to cur_list&lt;/span&gt;&lt;/div&gt;&lt;div style=&quot;&quot;&gt;&lt;span style=&quot;background-color: initial;&quot;&gt;&amp;nbsp; &amp;nbsp;- if next_char is less than cur_char and char is not yet filled:&lt;/span&gt;&lt;/div&gt;&lt;div style=&quot;&quot;&gt;&lt;span style=&quot;background-color: initial;&quot;&gt;&amp;nbsp; &amp;nbsp; &amp;nbsp; - add to cur_list&lt;/span&gt;&lt;/div&gt;&lt;div style=&quot;&quot;&gt;&lt;span style=&quot;background-color: initial;&quot;&gt;&amp;nbsp; &amp;nbsp;- else:&lt;/span&gt;&lt;/div&gt;&lt;div style=&quot;&quot;&gt;&lt;span style=&quot;background-color: initial;&quot;&gt;&amp;nbsp; &amp;nbsp; &amp;nbsp; -&amp;nbsp; check if&amp;nbsp;&lt;/span&gt;&lt;/div&gt;" style="text;html=1;align=left;verticalAlign=middle;resizable=0;points=[];autosize=1;strokeColor=none;fillColor=none;" vertex="1" parent="1">
          <mxGeometry x="-20" y="860" width="350" height="110" as="geometry" />
        </mxCell>
      </root>
    </mxGraphModel>
  </diagram>
</mxfile>
